# xmcd CD database file
#
# Track frame offsets:
#	150
#	19909
#	43524
#	82469
#	122929
#	149871
#	175394
#	215634
#	238208
#	250552
#	275831
#	301226
#
# Disc length: 4328 seconds
#
# Revision: 1
# Processed by: cddbd v1.5.2PL0 Copyright (c) Steve Scherf et al.
# Submitted via: CDex 1.51
#
DISCID=c010e60c
DTITLE=Gary Peacock - Tales of... Gary Peacock
DYEAR=2006
DGENRE=Jazz
TTITLE0=Blues
TTITLE1=Thyme Time
TTITLE2=Only Yesterday
TTITLE3=Major Major
TTITLE4=Winterlude
TTITLE5=Fig Foot
TTITLE6=Dreams (If Time Weren't)
TTITLE7=Moor
TTITLE8=Speak Easy
TTITLE9=Gaya
TTITLE10=Café Vue
TTITLE11=Valentine
EXTD=YEAR: 2006
EXTT0=
EXTT1=
EXTT2=
EXTT3=
EXTT4=
EXTT5=
EXTT6=
EXTT7=
EXTT8=
EXTT9=
EXTT10=
EXTT11=
PLAYORDER=
